# xmcd CD database file
#
# Track frame offsets:
#	150
#	18917
#	33016
#	46437
#	59929
#	71218
#	90455
#	105021
#	118561
#	136453
#	154105
#	166920
#	181308
#	195722
#
# Disc length: 2908 seconds
#
# Revision: 1
# Processed by: cddbd v1.5.2PL0 Copyright (c) Steve Scherf et al.
# Submitted via: CDex 1.70beta2
#
DISCID=b60b5a0e
DTITLE=Country Alive - Various Artists - Country Alive
DYEAR=1900
DGENRE=Country
TTITLE0=Vangie Cocker - Whose Bed Have Your Boots Been Under
TTITLE1=Lance James - What's Your Mama's Name
TTITLE2=Joanna Field - Lord I Hope This Day Is Good
TTITLE3=Billy Forest - I'm Crying My Heart Out Over You
TTITLE4=Sez Adamson - You're Still On My Mind
TTITLE5=Tommy Dell - Gene and Roy
TTITLE6=Barbara Ray - Coat Of Many Colours
TTITLE7=Mat Hurter - She Told Me So
TTITLE8=Caroline Du Preez - Broken Souvenirs
TTITLE9=Paul Greef - Amazed
TTITLE10=Tommy Oliver - Cheryl Monna Marie
TTITLE11=Clive Bruce - Till I Can Make It On My Own
TTITLE12=Les Magnum - Drinking Old Memories Down
TTITLE13=Sally Vaughn - Something In Red
EXTD=
EXTT0=
EXTT1=
EXTT2=
EXTT3=
EXTT4=
EXTT5=
EXTT6=
EXTT7=
EXTT8=
EXTT9=
EXTT10=
EXTT11=
EXTT12=
EXTT13=
PLAYORDER=
